# xmcd
#
# Track frame offsets:
#	150
#	13101
#	30007
#	57602
#	81730
#	105455
#	138540
#	167795
#	196439
#	237413
#
# Disc length: 3427 seconds
#
# Revision: 0
# Processed by: cddbd v1.5.2PL0 Copyright (c) Steve Scherf et al.
# Submitted via: EasyCDDAExtractor 9.0.0.1
#
DISCID=870d610a
DTITLE=Blue Oyster Cult - Empire Concert Club Cleveland OH 28-06-91 Remaster D
DTITLE=isc 1
DYEAR=1991
DGENRE=Hard Rock
TTITLE0=Emcee Intro - Music Intro - Band Takes The Stage
TTITLE1=Stairway To The Stars
TTITLE2=Dominance And Submission
TTITLE3=Before The Kiss (A Redcap)
TTITLE4=ETI
TTITLE5=Buck's Boogie
TTITLE6=Take Me Away
TTITLE7=Cities On Flame
TTITLE8=Astronomy
TTITLE9=Career Of Evil
EXTD=
EXTT0=
EXTT1=
EXTT2=
EXTT3=
EXTT4=
EXTT5=
EXTT6=
EXTT7=
EXTT8=
EXTT9=
PLAYORDER=
